<?xml version="1.0" standalone="no"?>
<!DOCTYPE svg PUBLIC "-//W3C//DTD SVG 20010904//EN"
 "http://www.w3.org/TR/2001/REC-SVG-20010904/DTD/svg10.dtd">
  <svg version="1.0"
width="1126.000000pt" height="1280.000000pt" viewBox="0 0 1126.000000 1280.000000"
preserveAspectRatio="xMidYMid meet">
<g transform="translate(0.000000,1280.000000) scale(0.100000,-0.100000)"
fill="#000000" stroke="none">
<path fill="white"" d="M5576 12779 c-99 -28 -162 -65 -231 -134 -121 -121 -169 -295 -130
-463 41 -173 158 -297 330 -352 22 -7 46 -17 53 -23 16 -13 18 -712 1 -723 -6
-3 -127 109 -282 262 -150 148 -309 305 -354 349 l-83 79 -55 -54 c-30 -30
-55 -59 -55 -65 0 -5 189 -199 420 -430 l420 -421 -2 -319 c-2 -209 -7 -320
-13 -322 -6 -2 -390 374 -854 834 l-844 837 -60 -64 -60 -64 917 -914 916
-914 -2 -371 c-2 -277 -6 -372 -15 -372 -6 0 -274 260 -596 577 l-584 577 -56
-57 c-32 -32 -57 -63 -57 -69 0 -6 295 -303 655 -660 l655 -649 -2 -368 c-2
-274 -6 -370 -15 -373 -6 -2 -173 156 -371 351 -198 196 -363 356 -367 356
-13 0 -125 -102 -125 -114 0 -6 168 -180 374 -385 206 -206 373 -378 370 -383
-3 -4 -158 -8 -344 -8 l-339 0 -15 -22 c-9 -13 -89 -152 -179 -310 -89 -158
-167 -288 -174 -288 -14 0 2 -55 -158 539 -74 277 -137 506 -140 509 -5 5
-154 -34 -163 -43 -3 -3 52 -218 121 -477 70 -261 123 -476 118 -481 -12 -12
-641 353 -652 378 -5 11 -111 403 -235 870 -125 468 -231 854 -235 859 -6 7
-154 -25 -165 -37 -3 -3 59 -239 363 -1375 29 -106 43 -176 37 -182 -12 -12
-646 353 -656 378 -4 9 -152 559 -329 1222 -177 663 -325 1208 -328 1212 -11
12 -166 -37 -165 -53 1 -8 55 -216 122 -464 66 -247 199 -745 296 -1106 97
-361 176 -661 176 -667 0 -7 -5 -12 -12 -12 -17 0 -520 290 -544 314 -16 16
-56 154 -164 558 -79 295 -146 542 -150 547 -6 11 -146 -22 -162 -37 -4 -4 47
-207 112 -452 66 -245 120 -451 120 -457 0 -7 -5 -13 -11 -13 -13 0 -528 297
-548 315 -12 12 -12 22 2 72 26 94 30 161 14 239 -42 199 -190 348 -385 390
-84 17 -110 17 -194 0 -175 -38 -308 -154 -369 -322 -31 -83 -31 -235 0 -318
75 -207 253 -332 471 -330 110 1 179 23 272 85 32 22 62 39 67 39 10 0 561
-317 576 -331 6 -7 5 -13 -3 -18 -7 -4 -212 -61 -455 -126 -243 -65 -446 -121
-450 -125 -9 -8 26 -148 40 -161 4 -4 249 58 543 137 294 79 546 145 560 145
27 2 570 -306 570 -323 0 -5 -6 -11 -14 -14 -7 -3 -513 -139 -1125 -303 -611
-164 -1114 -300 -1117 -303 -3 -4 4 -43 17 -88 21 -79 22 -81 48 -75 14 3 562
150 1218 326 655 175 1200 319 1210 319 16 0 606 -334 641 -362 17 -14 15 -25
-5 -31 -10 -2 -358 -95 -773 -207 -415 -111 -758 -205 -763 -209 -10 -9 36
-166 48 -165 6 1 402 106 880 234 l870 232 318 -183 c174 -101 317 -189 317
-196 0 -15 8 -13 -500 -148 -239 -64 -439 -120 -443 -124 -8 -8 20 -138 34
-157 6 -8 159 29 506 123 546 147 563 151 563 135 0 -7 -76 -146 -170 -311
-93 -164 -170 -305 -170 -312 0 -7 72 -140 160 -294 88 -155 160 -289 160
-299 0 -13 -6 -15 -27 -9 -16 3 -248 66 -518 138 -358 97 -493 129 -501 121
-16 -15 -47 -147 -37 -157 4 -4 214 -62 465 -130 251 -67 463 -126 470 -130
10 -7 10 -11 -2 -22 -8 -8 -153 -94 -322 -191 l-308 -177 -857 230 c-472 126
-867 231 -878 233 -17 3 -23 -9 -42 -76 -13 -44 -20 -83 -16 -87 5 -4 352 -99
773 -211 528 -142 766 -209 768 -219 3 -15 -615 -379 -644 -379 -8 0 -394 102
-857 226 -1247 334 -1539 412 -1568 419 -26 6 -27 4 -48 -75 -13 -45 -20 -84
-17 -87 6 -6 2223 -603 2239 -603 5 0 7 -7 5 -16 -4 -20 -525 -323 -556 -324
-13 0 -266 65 -564 145 -297 80 -542 144 -543 143 -11 -12 -45 -162 -38 -168
4 -4 206 -60 448 -124 242 -65 444 -122 450 -127 6 -6 4 -14 -5 -23 -22 -19
-557 -326 -570 -326 -6 0 -44 33 -83 74 -161 165 -375 201 -583 99 -63 -31
-148 -108 -188 -171 -34 -54 -86 -212 -86 -260 1 -58 44 -196 81 -258 47 -77
130 -150 219 -193 68 -32 85 -36 176 -39 159 -6 267 34 373 139 95 96 141 206
141 339 0 61 4 80 18 92 28 25 593 348 608 348 8 0 14 -6 14 -12 0 -7 -54
-213 -120 -458 -65 -245 -116 -448 -112 -452 10 -10 155 -49 160 -43 3 3 72
253 153 557 82 303 152 555 156 559 4 4 129 77 278 163 167 96 273 152 279
146 6 -6 -104 -433 -287 -1117 -163 -610 -297 -1117 -299 -1128 -3 -17 9 -23
80 -42 60 -16 84 -18 87 -10 3 7 149 552 325 1212 176 660 324 1209 329 1220
8 19 627 385 651 385 5 0 10 -7 10 -16 0 -9 -92 -361 -205 -782 -113 -421
-204 -767 -201 -769 11 -12 158 -44 165 -37 4 5 38 122 74 259 257 968 398
1480 409 1491 21 21 620 364 635 364 7 0 13 -3 13 -6 0 -4 -56 -217 -125 -474
-69 -256 -125 -471 -125 -477 0 -9 159 -58 166 -51 1 2 65 237 141 522 76 286
144 521 150 523 6 2 84 -123 173 -279 90 -156 172 -295 182 -311 l19 -27 330
0 c230 0 329 -3 329 -11 0 -6 -164 -178 -365 -382 l-364 -372 62 -62 c34 -35
65 -63 68 -63 4 0 170 160 369 356 199 195 367 353 373 351 9 -3 13 -98 15
-370 l2 -367 -661 -657 -660 -658 63 -63 64 -63 587 581 c323 320 591 579 597
575 6 -4 10 -134 10 -373 l0 -367 -918 -918 -917 -918 64 -60 64 -59 843 836
c464 460 848 833 854 829 6 -4 10 -115 10 -323 l1 -317 -428 -422 -428 -422
50 -51 c86 -89 44 -115 435 275 201 201 353 345 359 341 17 -11 15 -710 -1
-723 -7 -6 -31 -16 -53 -23 -213 -68 -345 -245 -345 -465 0 -182 99 -352 256
-437 66 -36 199 -71 249 -65 189 20 356 133 430 288 129 273 -7 577 -307 688
l-28 11 0 335 c0 184 4 335 9 335 4 0 148 -142 320 -315 171 -173 314 -315
319 -315 4 0 34 27 67 60 l59 59 -387 390 -387 390 0 326 c0 249 3 325 12 325
7 0 373 -363 813 -807 l800 -806 63 57 c34 32 62 63 62 70 0 6 -394 405 -875
886 l-875 875 0 377 c0 260 3 378 11 378 5 0 256 -248 557 -551 l547 -551 64
65 63 65 -621 624 -621 625 0 372 c0 290 3 371 13 371 6 0 157 -147 334 -327
l322 -328 62 63 62 63 -371 373 c-205 205 -372 378 -372 384 0 9 91 12 341 14
l341 3 172 300 c95 164 178 301 183 302 6 2 13 -3 16 -11 4 -9 65 -237 138
-508 72 -271 135 -497 140 -502 9 -10 155 20 163 33 3 4 -51 215 -120 469 -68
255 -124 469 -124 477 0 8 6 15 13 15 6 0 154 -82 327 -183 l314 -182 58 -215
c31 -118 137 -513 235 -878 l177 -663 32 6 c74 13 134 36 134 51 0 8 -90 351
-200 762 -111 411 -202 756 -203 767 -1 13 4 20 15 19 10 -1 157 -82 328 -180
l310 -179 20 -65 c10 -36 156 -580 325 -1210 168 -630 310 -1155 315 -1167 l9
-21 80 21 c49 13 81 26 81 34 0 7 -102 392 -226 856 -124 463 -259 966 -299
1117 -41 151 -71 278 -66 283 8 8 523 -282 553 -312 15 -14 62 -184 290 -1034
11 -42 23 -79 27 -81 3 -2 41 5 84 17 55 14 77 25 77 36 0 9 -52 209 -115 444
-63 235 -115 437 -115 448 0 10 6 19 13 19 6 0 138 -73 292 -163 l280 -162 6
-115 c9 -160 42 -240 141 -339 105 -105 213 -145 372 -139 91 3 108 7 176 39
89 43 172 116 219 193 37 62 80 200 81 258 0 48 -52 206 -86 260 -40 63 -125
140 -188 171 -209 102 -434 62 -592 -106 l-55 -58 -37 21 c-20 12 -146 85
-280 162 -133 77 -241 145 -239 151 2 6 192 62 423 123 230 62 435 118 455
123 l37 11 -20 78 c-11 42 -23 80 -26 84 -4 4 -250 -58 -547 -138 -297 -80
-552 -143 -566 -141 -29 3 -559 306 -559 319 0 5 10 12 23 17 12 5 515 140
1117 301 602 161 1100 297 1106 302 8 6 6 29 -8 81 -11 39 -23 75 -27 80 -4 4
-553 -139 -1221 -318 -667 -179 -1220 -325 -1228 -325 -17 0 -639 357 -648
372 -4 6 -2 13 4 17 6 3 355 98 776 211 693 185 766 207 766 225 -1 11 -9 49
-19 85 -15 52 -22 65 -37 63 -11 -1 -406 -106 -878 -233 l-860 -231 -255 147
c-141 81 -284 164 -319 183 -37 22 -61 42 -60 50 2 10 144 53 470 140 257 69
469 129 472 132 3 3 -5 41 -17 85 -20 67 -26 78 -43 76 -10 -2 -236 -62 -502
-133 -266 -71 -493 -129 -504 -129 -15 0 -18 4 -14 17 4 10 79 144 167 300
l161 282 -171 301 c-94 165 -171 308 -171 316 0 13 6 15 28 9 15 -3 243 -64
507 -135 264 -71 489 -130 499 -132 17 -2 23 9 43 77 12 43 19 82 15 86 -4 4
-218 63 -475 132 -258 69 -471 128 -475 131 -11 12 23 33 331 211 l308 177
862 -230 c474 -127 870 -232 881 -234 15 -2 22 9 37 62 10 36 18 74 19 85 0
18 -70 39 -742 219 -409 110 -758 203 -775 208 -18 5 -33 14 -33 21 0 16 623
377 649 377 10 0 565 -146 1232 -325 667 -179 1216 -322 1220 -318 9 10 49
156 44 161 -2 2 -507 139 -1122 304 -615 164 -1122 303 -1127 309 -6 6 -6 12
0 18 26 27 551 320 564 316 58 -18 1069 -286 1084 -288 16 -2 23 12 42 80 l22
83 -36 11 c-20 5 -226 61 -457 123 -301 81 -420 117 -420 127 0 14 548 338
574 339 8 0 29 -11 47 -25 54 -42 151 -83 226 -96 242 -43 495 127 553 372 79
338 -210 652 -551 599 -184 -29 -347 -169 -400 -345 -20 -69 -19 -204 2 -283
17 -63 17 -65 -2 -79 -26 -19 -515 -300 -536 -308 -14 -5 -18 -2 -18 13 0 11
52 213 115 449 63 236 115 436 115 445 0 16 -149 63 -162 50 -4 -4 -73 -252
-153 -552 -80 -300 -151 -550 -158 -556 -18 -18 -535 -314 -547 -314 -17 0
-12 32 24 167 19 70 103 382 186 693 83 311 201 748 261 972 60 223 109 413
109 420 0 9 -29 22 -81 35 l-80 21 -9 -21 c-5 -12 -61 -215 -124 -452 -363
-1364 -529 -1971 -539 -1982 -27 -27 -640 -374 -648 -366 -4 4 84 350 196 768
113 418 205 768 205 777 0 17 -54 38 -134 53 l-32 6 -228 -852 c-126 -470
-233 -865 -238 -879 -6 -19 -78 -65 -316 -202 -169 -97 -315 -180 -324 -183
-13 -5 -18 -2 -18 11 1 11 57 226 125 479 68 253 120 463 116 468 -13 13 -154
48 -161 40 -4 -4 -59 -204 -123 -443 -65 -239 -127 -470 -138 -512 -12 -43
-27 -78 -33 -78 -7 0 -88 134 -180 298 -93 163 -174 300 -180 304 -6 4 -165 8
-353 8 -284 0 -343 2 -343 14 0 7 169 179 375 381 206 202 375 372 375 377 0
15 -93 118 -106 118 -7 0 -156 -146 -331 -325 -175 -179 -324 -325 -330 -325
-10 0 -13 81 -13 373 l0 372 615 622 c338 341 615 625 615 630 0 5 -26 35 -58
67 l-59 57 -544 -550 c-299 -303 -550 -551 -556 -551 -10 0 -13 82 -13 379 0
323 2 380 15 391 8 7 402 403 876 881 l861 869 -61 62 -61 63 -803 -808 c-441
-444 -808 -808 -814 -807 -10 0 -13 72 -13 327 l0 326 380 382 c209 209 380
388 380 396 0 8 -25 39 -55 69 l-55 55 -318 -318 c-174 -174 -320 -317 -325
-317 -4 0 -7 151 -7 335 0 311 1 336 18 342 62 21 145 69 191 110 263 231 215
648 -91 804 -126 64 -234 79 -342 48z m28 -5055 c3 -9 6 -168 6 -355 l0 -340
93 3 92 3 5 350 5 350 309 0 310 0 162 -285 c90 -157 163 -290 163 -296 1 -7
-129 -88 -289 -180 -159 -93 -290 -172 -290 -177 0 -11 79 -147 85 -147 3 0
134 74 292 165 157 91 291 164 297 162 13 -6 336 -569 336 -587 0 -19 -312
-561 -326 -567 -7 -2 -141 70 -299 161 -158 91 -290 166 -295 166 -5 0 -28
-32 -51 -71 -38 -63 -41 -73 -27 -83 9 -7 143 -83 297 -171 155 -87 281 -163
281 -169 0 -6 -76 -141 -168 -301 l-168 -290 -310 0 -309 0 -5 350 -5 350 -92
3 -93 3 0 -340 c0 -187 -3 -346 -6 -355 -5 -14 -46 -16 -354 -16 -318 0 -348
1 -362 18 -17 18 -323 546 -333 573 -5 14 49 49 269 174 151 86 282 162 290
168 14 11 10 21 -27 84 -23 40 -44 73 -47 73 -3 0 -133 -74 -289 -164 -156
-91 -289 -162 -295 -160 -6 3 -82 131 -170 284 l-159 280 165 287 c97 172 170
289 180 291 9 2 138 -67 286 -152 148 -86 274 -156 280 -156 8 0 92 132 92
145 0 1 -126 76 -280 166 -153 89 -281 168 -283 174 -5 10 293 544 322 579 12
14 52 16 361 16 308 0 349 -2 354 -16z"/>
</g>
</svg>
